<?xml version="1.0" encoding="UTF-8"?>
<svg id="Calque_1" data-name="Calque 1" xmlns="http://www.w3.org/2000/svg" viewBox="0 0 1001 1001">
  <defs>
    <style>
      .cls-1 {
        fill: #1d1d1b;
        stroke: #1d1d1b;
        stroke-miterlimit: 10;
      }
    </style>
  </defs>
  <path class="cls-1" d="M194.76,424.92c-101.04,101.04-101.04,264.86,0,365.9s264.86,101.04,365.9,0c15.55-15.55,28.69-32.59,39.46-50.65-99.33,59.18-229.76,46.03-315.25-39.46-85.49-85.49-98.64-215.93-39.46-315.25-18.06,10.76-35.1,23.91-50.65,39.46Z"/>
  <circle class="cls-1" cx="443.81" cy="435.81" r="84.26"/>
  <path class="cls-1" d="M.5.5v475.97C200.47,294.91,446.62,192.4,698.75,168.95c-6.4,68.85-6.91,138.14-1.53,207.07,68.92,5.39,138.22,4.88,207.07-1.53-20.7,222.54-102.99,440.43-246.86,626.01h343.07V.5H.5Z"/>
</svg>