<?xml version="1.0" encoding="UTF-8"?>
<svg id="Calque_1" xmlns="http://www.w3.org/2000/svg" version="1.1" viewBox="0 0 50 50">
  <!-- Generator: Adobe Illustrator 29.6.1, SVG Export Plug-In . SVG Version: 2.1.1 Build 9)  -->
  <defs>
    <style>
      .st0 {
        fill: #fff;
      }
    </style>
  </defs>
  <path class="st0" d="M28.1,44.4c-.3.2-.3,0-.5,0-5.9-3.2-12.1-5.2-19-4.6,0-1.6.1-2.8,0-3.9-.2-3.4-.5-6.9-3-9.5-2-2.1-1.4-3.8.4-5.6,6.3-6.6,13.7-11.2,22.6-13.5,2.5-.7,5.2-1.1,8-1.7v8.1h7.7c0,1,0,1.7-.1,2.4-1.4,8.9-4.7,16.9-10.6,23.8-1.5,1.7-3.6,3-5.5,4.5ZM31.5,29.4c-9.6,2.5-16.7-4.4-14.2-14.1-3.1,2-4.6,5.8-3.8,9.7.8,4,4,7.3,8.2,8.2,3.7.8,7.7-.7,9.8-3.8ZM26.4,12.9c-1.8-.1-3.5,1.4-3.4,3.2.1,1.8,1.1,3.1,3.1,3.2,1.8.1,3.4-1.3,3.5-3.1.1-1.7-1.3-3.2-3.2-3.3Z"/>
</svg>